<svg width="15" height="15" viewBox="0 0 15 15" fill="none" xmlns="http://www.w3.org/2000/svg">
<path id="Star 3" d="M5.33607 2.38128C5.95185 0.24596 8.97746 0.24596 9.59324 2.38128C9.86675 3.32972 10.7347 3.98278 11.7218 3.98278H11.8304C14.0476 3.98278 15.0407 6.76375 13.325 8.1682L12.8885 8.5255C12.1408 9.13762 11.8296 10.1364 12.0974 11.0649L12.3115 11.8073C12.903 13.8584 10.4946 15.4459 8.84282 14.0937C8.04121 13.4375 6.8881 13.4375 6.08649 14.0937C4.4347 15.4459 2.02633 13.8584 2.61782 11.8074L2.83192 11.0649C3.09969 10.1364 2.78852 9.13762 2.04076 8.5255L1.60429 8.1682C-0.111366 6.76374 0.881744 3.98278 3.09894 3.98278H3.20748C4.19456 3.98278 5.06256 3.32972 5.33607 2.38128Z" fill="#E3170A"/>
</svg>
